<?xml version="1.0" encoding="utf-8"?>
<svg xmlns="http://www.w3.org/2000/svg" viewBox="191.8391 115 166.3217 240" width="166.322px" height="240px" preserveAspectRatio="none"><g fill="#ffc72c" fill-rule="none" stroke="none" stroke-width="1" stroke-linecap="butt" stroke-linejoin="miter" stroke-miterlimit="10" stroke-dasharray="" stroke-dashoffset="0" font-family="none" font-weight="none" font-size="none" text-anchor="none" style="mix-blend-mode: normal" id="object-1" transform="matrix(1, 0, 0, 1, 0, 1.4210854715202004e-14)"><g data-paper-data="{&quot;isGlobalGroup&quot;:true,&quot;bounds&quot;:{&quot;x&quot;:191.83917682901978,&quot;y&quot;:115,&quot;width&quot;:166.32164634196045,&quot;height&quot;:240}}"><g data-paper-data="{&quot;stacked&quot;:true,&quot;isPrimaryText&quot;:true}" fill-rule="nonzero"><path d="M220.47429,314.59824h-11.05484l-9.09721,-33.04937v17.27319c0,1.15155 -0.41584,2.14316 -1.24751,2.97483c-0.83167,0.83167 -1.83608,1.24751 -3.01321,1.24751c-1.15155,0 -2.14316,-0.41584 -2.97483,-1.24751c-0.83167,-0.83167 -1.24751,-1.82328 -1.24751,-2.97483v-33.70192c0,-1.71452 0.60776,-3.17955 1.82328,-4.39507c1.21552,-1.21552 2.68054,-1.82328 4.39507,-1.82328c1.45863,0 2.74452,0.44143 3.85768,1.32428c1.11316,0.88285 1.84887,2.01521 2.20713,3.39706l7.8689,28.59673v-33.31807h8.48306zM196.06151,314.59824c-1.15155,0 -2.14316,-0.40944 -2.97483,-1.22832c-0.83167,-0.81888 -1.24751,-1.81688 -1.24751,-2.99402c0,-1.15155 0.41584,-2.14316 1.24751,-2.97483c0.83167,-0.83167 1.82328,-1.24751 2.97483,-1.24751c1.17714,0 2.18154,0.41584 3.01321,1.24751c0.83167,0.83167 1.24751,1.82328 1.24751,2.97483c0,1.17714 -0.41584,2.17514 -1.24751,2.99402c-0.83167,0.81888 -1.83608,1.22832 -3.01321,1.22832z" data-paper-data="{&quot;glyphName&quot;:&quot;N&quot;,&quot;glyphIndex&quot;:0,&quot;firstGlyphOfWord&quot;:true,&quot;word&quot;:1,&quot;line&quot;:1,&quot;firstGlyphOfFirstLine&quot;:true}" style="fill: rgb(255, 255, 255);"/><path d="M243.19813,314.59824c-2.76371,0 -5.29071,-0.67813 -7.58101,-2.0344c-2.2903,-1.35627 -4.11358,-3.17955 -5.46984,-5.46984c-1.35627,-2.2903 -2.0344,-4.8173 -2.0344,-7.58101v-24.83501c0,-1.15155 0.40944,-2.14316 1.22832,-2.97483c0.81888,-0.83167 1.81688,-1.24751 2.99402,-1.24751c1.15155,0 2.14316,0.41584 2.97483,1.24751c0.83167,0.83167 1.24751,1.82328 1.24751,2.97483v24.83501c0,1.81688 0.65254,3.37787 1.95763,4.68295c1.30509,1.30509 2.86607,1.95763 4.68295,1.95763c1.84247,0 3.41625,-0.65254 4.72134,-1.95763c1.30509,-1.30509 1.95763,-2.86607 1.95763,-4.68295v-40.61119h8.44467v40.61119c0,2.76371 -0.68453,5.29071 -2.05359,7.58101c-1.36906,2.2903 -3.19874,4.11358 -5.48904,5.46984c-2.2903,1.35627 -4.8173,2.0344 -7.58101,2.0344zM232.33522,267.34646c-1.17714,0 -2.17514,-0.40944 -2.99402,-1.22832c-0.81888,-0.81888 -1.22832,-1.81688 -1.22832,-2.99402c0,-1.15155 0.40944,-2.14316 1.22832,-2.97483c0.81888,-0.83167 1.81688,-1.24751 2.99402,-1.24751c1.15155,0 2.14316,0.41584 2.97483,1.24751c0.83167,0.83167 1.24751,1.82328 1.24751,2.97483c0,1.17714 -0.41584,2.17514 -1.24751,2.99402c-0.83167,0.81888 -1.82328,1.22832 -2.97483,1.22832z" data-paper-data="{&quot;glyphName&quot;:&quot;U&quot;,&quot;glyphIndex&quot;:1,&quot;word&quot;:1,&quot;line&quot;:1}" style="fill: rgb(255, 255, 255);"/><path d="M270.25947,279.169c-1.17714,0 -2.17514,-0.41584 -2.99402,-1.24751c-0.81888,-0.83167 -1.22832,-1.83608 -1.22832,-3.01321c0,-1.15155 0.40944,-2.14316 1.22832,-2.97483c0.81888,-0.83167 1.81688,-1.24751 2.99402,-1.24751c1.15155,0 2.14316,0.41584 2.97483,1.24751c0.83167,0.83167 1.24751,1.82328 1.24751,2.97483c0,1.17714 -0.41584,2.18154 -1.24751,3.01321c-0.83167,0.83167 -1.82328,1.24751 -2.97483,1.24751zM286.68819,267.34646h-16.42872c-1.17714,0 -2.17514,-0.41584 -2.99402,-1.24751c-0.81888,-0.83167 -1.22832,-1.82328 -1.22832,-2.97483c0,-1.17714 0.40944,-2.17514 1.22832,-2.99402c0.81888,-0.81888 1.81688,-1.22832 2.99402,-1.22832h16.42872c1.15155,0 2.14316,0.40944 2.97483,1.22832c0.83167,0.81888 1.24751,1.81688 1.24751,2.99402c0,1.15155 -0.41584,2.14316 -1.24751,2.97483c-0.83167,0.83167 -1.82328,1.24751 -2.97483,1.24751zM266.03713,314.59824v-27.86742c0,-1.15155 0.40944,-2.14316 1.22832,-2.97483c0.81888,-0.83167 1.81688,-1.24751 2.99402,-1.24751h12.89732c1.15155,0 2.14316,0.41584 2.97483,1.24751c0.83167,0.83167 1.24751,1.82328 1.24751,2.97483c0,1.17714 -0.41584,2.17514 -1.24751,2.99402c-0.83167,0.81888 -1.82328,1.22832 -2.97483,1.22832h-8.67498v15.16202h12.20639c1.15155,0 2.14316,0.40944 2.97483,1.22832c0.83167,0.81888 1.24751,1.81688 1.24751,2.99402c0,1.15155 -0.41584,2.14316 -1.24751,2.97483c-0.83167,0.83167 -1.82328,1.24751 -2.97483,1.24751z" data-paper-data="{&quot;glyphName&quot;:&quot;E&quot;,&quot;glyphIndex&quot;:2,&quot;word&quot;:1,&quot;line&quot;:1}" style="fill: rgb(255, 255, 255);"/><path d="M312.2909,314.59824h-8.59821c-6.55102,-33.80428 -9.82653,-50.94952 -9.82653,-51.43573c0,-1.5098 0.48621,-2.62297 1.45863,-3.33948c0.81888,-0.61416 1.68893,-0.92124 2.61017,-0.92124c2.2775,0 3.72333,1.31788 4.33749,3.95364l5.71935,29.51797l6.48704,-33.47161h8.6366zM307.9918,267.34646c-1.15155,0 -2.14316,-0.40944 -2.97483,-1.22832c-0.83167,-0.81888 -1.24751,-1.81688 -1.24751,-2.99402c0,-1.15155 0.41584,-2.14316 1.24751,-2.97483c0.83167,-0.83167 1.82328,-1.24751 2.97483,-1.24751c1.17714,0 2.18154,0.41584 3.01321,1.24751c0.83167,0.83167 1.24751,1.82328 1.24751,2.97483c0,1.17714 -0.41584,2.17514 -1.24751,2.99402c-0.83167,0.81888 -1.83608,1.22832 -3.01321,1.22832z" data-paper-data="{&quot;glyphName&quot;:&quot;V&quot;,&quot;glyphIndex&quot;:3,&quot;word&quot;:1,&quot;line&quot;:1}" style="fill: rgb(255, 255, 255);"/><path d="M343.07557,306.15357c1.81688,0 3.37787,-0.65254 4.68295,-1.95763c1.30509,-1.30509 1.95763,-2.86607 1.95763,-4.68295v-25.48755c0,-1.84247 -0.65254,-3.41625 -1.95763,-4.72134c-1.30509,-1.30509 -2.86607,-1.95763 -4.68295,-1.95763c-1.84247,0 -3.40986,0.65254 -4.70215,1.95763c-1.29229,1.30509 -1.93844,2.87887 -1.93844,4.72134v25.48755c0,1.81688 0.64615,3.37787 1.93844,4.68295c1.29229,1.30509 2.85967,1.95763 4.70215,1.95763zM343.07557,290.99154c-1.17714,0 -2.17514,-0.41584 -2.99402,-1.24751c-0.81888,-0.83167 -1.22832,-1.82328 -1.22832,-2.97483c0,-1.17714 0.40944,-2.18154 1.22832,-3.01321c0.81888,-0.83167 1.81688,-1.24751 2.99402,-1.24751c1.15155,0 2.14316,0.41584 2.97483,1.24751c0.83167,0.83167 1.24751,1.83608 1.24751,3.01321c0,1.15155 -0.41584,2.14316 -1.24751,2.97483c-0.83167,0.83167 -1.82328,1.24751 -2.97483,1.24751zM343.07557,314.59824c-2.84048,0 -5.40587,-0.67174 -7.69617,-2.01521c-2.2903,-1.34347 -4.10078,-3.16035 -5.43146,-5.45065c-1.33068,-2.2903 -1.99601,-4.8301 -1.99601,-7.6194v-25.48755c0,-2.7893 0.68453,-5.3227 2.05359,-7.6002c1.36906,-2.2775 3.19874,-4.10078 5.48904,-5.46984c2.2903,-1.36906 4.8173,-2.05359 7.58101,-2.05359c2.76371,0 5.29071,0.68453 7.58101,2.05359c2.2903,1.36906 4.11358,3.19234 5.46984,5.46984c1.35627,2.2775 2.0344,4.8109 2.0344,7.6002v25.48755c0,2.76371 -0.67813,5.29071 -2.0344,7.58101c-1.35627,2.2903 -3.17955,4.11358 -5.46984,5.46984c-2.2903,1.35627 -4.8173,2.0344 -7.58101,2.0344z" data-paper-data="{&quot;glyphName&quot;:&quot;O&quot;,&quot;glyphIndex&quot;:4,&quot;lastGlyphOfWord&quot;:true,&quot;word&quot;:1,&quot;line&quot;:1,&quot;lastGlyphOfFirstLine&quot;:true}" style="fill: rgb(255, 255, 255);"/><path d="M207.22099,355c-0.59869,0 -1.13982,-0.19956 -1.62338,-0.59869c-0.48356,-0.39913 -0.77907,-0.90572 -0.88653,-1.51976l-3.93756,-22.65824l-3.93756,22.65824c-0.10746,0.61404 -0.40297,1.12063 -0.88653,1.51976c-0.48356,0.39913 -1.02469,0.59869 -1.62338,0.59869c-0.85966,0 -1.51208,-0.32237 -1.95727,-0.96712c-0.35308,-0.49124 -0.52961,-1.0362 -0.52961,-1.63489c0,-0.19956 1.76538,-10.47714 5.29613,-30.83271h7.27643c3.54611,20.32488 5.31916,30.58709 5.31916,30.78666c0,0.6294 -0.17654,1.18971 -0.52961,1.68095c-0.46053,0.64475 -1.12063,0.96712 -1.98029,0.96712zM200.77353,355c-0.70615,-0.01535 -1.30484,-0.26864 -1.79608,-0.75988c-0.49124,-0.49124 -0.73685,-1.08225 -0.73685,-1.77305c0,-0.70615 0.24562,-1.30101 0.73685,-1.78457c0.49124,-0.48356 1.08993,-0.74069 1.79608,-0.77139c0.7215,0.0307 1.32787,0.28783 1.81911,0.77139c0.49124,0.48356 0.73685,1.07842 0.73685,1.78457c0,0.6908 -0.24562,1.28182 -0.73685,1.77305c-0.49124,0.49124 -1.0976,0.74453 -1.81911,0.75988z" data-paper-data="{&quot;glyphName&quot;:&quot;A&quot;,&quot;glyphIndex&quot;:5,&quot;firstGlyphOfWord&quot;:true,&quot;word&quot;:2,&quot;line&quot;:2,&quot;firstGlyphOfSecondLine&quot;:true}" style="fill: rgb(244, 158, 10);"/><path d="M227.3463,355h-5.25008l-4.09875,-14.80615v7.87512h-5.06587v-23.53326c0,-0.81361 0.28783,-1.50825 0.8635,-2.08391c0.57567,-0.57567 1.2703,-0.8635 2.08391,-0.8635c0.6908,0 1.30101,0.21108 1.83062,0.63323c0.52961,0.42216 0.87885,0.96328 1.04771,1.62338l5.96391,21.64507l5.96391,-21.64507c0.16886,-0.67545 0.52194,-1.22041 1.05923,-1.63489c0.53729,-0.41448 1.14366,-0.62172 1.81911,-0.62172c0.81361,0 1.50825,0.28783 2.08391,0.8635c0.57567,0.57567 0.8635,1.2703 0.8635,2.08391v23.53326h-5.08889v-7.87512zM233.97799,355c-0.70615,0 -1.30868,-0.24946 -1.80759,-0.74837c-0.49891,-0.49891 -0.74837,-1.09377 -0.74837,-1.78457c0,-0.70615 0.24946,-1.30484 0.74837,-1.79608c0.49891,-0.49124 1.10144,-0.73685 1.80759,-0.73685c0.6908,0 1.28566,0.24562 1.78457,0.73685c0.49891,0.49124 0.74837,1.08993 0.74837,1.79608c0,0.6908 -0.24946,1.28566 -0.74837,1.78457c-0.49891,0.49891 -1.09377,0.74837 -1.78457,0.74837zM215.46454,355c-0.6908,0 -1.28566,-0.24946 -1.78457,-0.74837c-0.49891,-0.49891 -0.74837,-1.09377 -0.74837,-1.78457c0,-0.70615 0.24946,-1.30484 0.74837,-1.79608c0.49891,-0.49124 1.09377,-0.73685 1.78457,-0.73685c0.70615,0 1.30484,0.24562 1.79608,0.73685c0.49124,0.49124 0.73685,1.08993 0.73685,1.79608c0,0.6908 -0.24562,1.28566 -0.73685,1.78457c-0.49124,0.49891 -1.08993,0.74837 -1.79608,0.74837z" data-paper-data="{&quot;glyphName&quot;:&quot;M&quot;,&quot;glyphIndex&quot;:6,&quot;word&quot;:2,&quot;line&quot;:2}" style="fill: rgb(244, 158, 10);"/><path d="M254.1954,355c-0.59869,0 -1.13982,-0.19956 -1.62338,-0.59869c-0.48356,-0.39913 -0.77907,-0.90572 -0.88653,-1.51976l-3.93756,-22.65824l-3.93756,22.65824c-0.10746,0.61404 -0.40297,1.12063 -0.88653,1.51976c-0.48356,0.39913 -1.02469,0.59869 -1.62338,0.59869c-0.85966,0 -1.51208,-0.32237 -1.95727,-0.96712c-0.35308,-0.49124 -0.52961,-1.0362 -0.52961,-1.63489c0,-0.19956 1.76538,-10.47714 5.29613,-30.83271h7.27643c3.54611,20.32488 5.31916,30.58709 5.31916,30.78666c0,0.6294 -0.17654,1.18971 -0.52961,1.68095c-0.46053,0.64475 -1.12063,0.96712 -1.98029,0.96712zM247.74793,355c-0.70615,-0.01535 -1.30484,-0.26864 -1.79608,-0.75988c-0.49124,-0.49124 -0.73685,-1.08225 -0.73685,-1.77305c0,-0.70615 0.24562,-1.30101 0.73685,-1.78457c0.49124,-0.48356 1.08993,-0.74069 1.79608,-0.77139c0.7215,0.0307 1.32787,0.28783 1.81911,0.77139c0.49124,0.48356 0.73685,1.07842 0.73685,1.78457c0,0.6908 -0.24562,1.28182 -0.73685,1.77305c-0.49124,0.49124 -1.0976,0.74453 -1.81911,0.75988z" data-paper-data="{&quot;glyphName&quot;:&quot;A&quot;,&quot;glyphIndex&quot;:7,&quot;word&quot;:2,&quot;line&quot;:2}" style="fill: rgb(244, 158, 10);"/><path d="M277.08391,355h-6.63168l-5.45732,-19.82596v10.362c0,0.6908 -0.24946,1.28566 -0.74837,1.78457c-0.49891,0.49891 -1.10144,0.74837 -1.80759,0.74837c-0.6908,0 -1.28566,-0.24946 -1.78457,-0.74837c-0.49891,-0.49891 -0.74837,-1.09377 -0.74837,-1.78457v-20.21742c0,-1.02852 0.36459,-1.90738 1.09377,-2.63655c0.72918,-0.72918 1.60803,-1.09377 2.63655,-1.09377c0.87501,0 1.64641,0.26481 2.31418,0.79442c0.66777,0.52961 1.10912,1.2089 1.32403,2.03786l4.72047,17.15487v-19.98715h5.08889zM262.43895,355c-0.6908,0 -1.28566,-0.24562 -1.78457,-0.73685c-0.49891,-0.49124 -0.74837,-1.08993 -0.74837,-1.79608c0,-0.6908 0.24946,-1.28566 0.74837,-1.78457c0.49891,-0.49891 1.09377,-0.74837 1.78457,-0.74837c0.70615,0 1.30868,0.24946 1.80759,0.74837c0.49891,0.49891 0.74837,1.09377 0.74837,1.78457c0,0.70615 -0.24946,1.30484 -0.74837,1.79608c-0.49891,0.49124 -1.10144,0.73685 -1.80759,0.73685z" data-paper-data="{&quot;glyphName&quot;:&quot;N&quot;,&quot;glyphIndex&quot;:8,&quot;word&quot;:2,&quot;line&quot;:2}" style="fill: rgb(244, 158, 10);"/><path d="M284.19916,333.74638c-0.70615,0 -1.30484,-0.24946 -1.79608,-0.74837c-0.49124,-0.49891 -0.73685,-1.10144 -0.73685,-1.80759c0,-0.6908 0.24562,-1.28566 0.73685,-1.78457c0.49124,-0.49891 1.08993,-0.74837 1.79608,-0.74837c0.6908,0 1.28566,0.24946 1.78457,0.74837c0.49891,0.49891 0.74837,1.09377 0.74837,1.78457c0,0.70615 -0.24946,1.30868 -0.74837,1.80759c-0.49891,0.49891 -1.09377,0.74837 -1.78457,0.74837zM294.05457,326.65417h-9.85542c-0.70615,0 -1.30484,-0.24946 -1.79608,-0.74837c-0.49124,-0.49891 -0.73685,-1.09377 -0.73685,-1.78457c0,-0.70615 0.24562,-1.30484 0.73685,-1.79608c0.49124,-0.49124 1.08993,-0.73685 1.79608,-0.73685h9.85542c0.6908,0 1.28566,0.24562 1.78457,0.73685c0.49891,0.49124 0.74837,1.08993 0.74837,1.79608c0,0.6908 -0.24946,1.28566 -0.74837,1.78457c-0.49891,0.49891 -1.09377,0.74837 -1.78457,0.74837zM281.66622,355v-16.71736c0,-0.6908 0.24562,-1.28566 0.73685,-1.78457c0.49124,-0.49891 1.08993,-0.74837 1.79608,-0.74837h7.73696c0.6908,0 1.28566,0.24946 1.78457,0.74837c0.49891,0.49891 0.74837,1.09377 0.74837,1.78457c0,0.70615 -0.24946,1.30484 -0.74837,1.79608c-0.49891,0.49124 -1.09377,0.73685 -1.78457,0.73685h-5.20403v9.09554h7.32248c0.6908,0 1.28566,0.24562 1.78457,0.73685c0.49891,0.49124 0.74837,1.08993 0.74837,1.79608c0,0.6908 -0.24946,1.28566 -0.74837,1.78457c-0.49891,0.49891 -1.09377,0.74837 -1.78457,0.74837z" data-paper-data="{&quot;glyphName&quot;:&quot;E&quot;,&quot;glyphIndex&quot;:9,&quot;word&quot;:2,&quot;line&quot;:2}" style="fill: rgb(244, 158, 10);"/><path d="M307.75544,355c-1.65792,0 -3.17384,-0.41064 -4.54777,-1.23193c-1.37392,-0.82128 -2.47153,-1.91889 -3.29281,-3.29281c-0.82128,-1.37392 -1.23193,-2.88985 -1.23193,-4.54777v-15.28971c0,-1.65792 0.41064,-3.17384 1.23193,-4.54777c0.82128,-1.37392 1.91889,-2.47153 3.29281,-3.29281c1.37392,-0.82128 2.88985,-1.23193 4.54777,-1.23193c1.56581,0 3.00882,0.37226 4.32901,1.11679c1.3202,0.74453 2.39477,1.73851 3.22373,2.98195c0.99782,1.50441 1.49673,3.22373 1.49673,5.15797c0,0.70615 -0.24562,1.30868 -0.73685,1.80759c-0.49124,0.49891 -1.08993,0.74837 -1.79608,0.74837c-0.6908,0 -1.28566,-0.24946 -1.78457,-0.74837c-0.49891,-0.49891 -0.74837,-1.10144 -0.74837,-1.80759c0,-1.3202 -0.46821,-2.3871 -1.40463,-3.20071c-0.7215,-0.64475 -1.58116,-0.96712 -2.57899,-0.96712c-1.10528,0 -2.04554,0.39145 -2.82077,1.17436c-0.77523,0.78291 -1.16285,1.71932 -1.16285,2.80925v15.28971c0,1.10528 0.38762,2.04554 1.16285,2.82077c0.77523,0.77523 1.71549,1.16285 2.82077,1.16285c1.08993,0 2.02635,-0.38762 2.80925,-1.16285c0.78291,-0.77523 1.17436,-1.71549 1.17436,-2.82077v-2.71715h5.06587v2.71715c0,1.65792 -0.4068,3.17384 -1.22041,4.54777c-0.81361,1.37392 -1.90738,2.47153 -3.2813,3.29281c-1.37392,0.82128 -2.88985,1.23193 -4.54777,1.23193zM307.75544,340.81557c-0.70615,0 -1.30484,-0.24562 -1.79608,-0.73685c-0.49124,-0.49124 -0.73685,-1.08993 -0.73685,-1.79608c0,-0.6908 0.24562,-1.28566 0.73685,-1.78457c0.49124,-0.49891 1.08993,-0.74837 1.79608,-0.74837c0.6908,0 1.28566,0.24946 1.78457,0.74837c0.49891,0.49891 0.74837,1.09377 0.74837,1.78457c0,0.70615 -0.24946,1.30484 -0.74837,1.79608c-0.49891,0.49124 -1.09377,0.73685 -1.78457,0.73685z" data-paper-data="{&quot;glyphName&quot;:&quot;C&quot;,&quot;glyphIndex&quot;:10,&quot;word&quot;:2,&quot;line&quot;:2}" style="fill: rgb(244, 158, 10);"/><path d="M323.96622,333.74638c-0.70615,0 -1.30484,-0.24946 -1.79608,-0.74837c-0.49124,-0.49891 -0.73685,-1.10144 -0.73685,-1.80759c0,-0.6908 0.24562,-1.28566 0.73685,-1.78457c0.49124,-0.49891 1.08993,-0.74837 1.79608,-0.74837c0.6908,0 1.28566,0.24946 1.78457,0.74837c0.49891,0.49891 0.74837,1.09377 0.74837,1.78457c0,0.70615 -0.24946,1.30868 -0.74837,1.80759c-0.49891,0.49891 -1.09377,0.74837 -1.78457,0.74837zM333.82163,326.65417h-9.85542c-0.70615,0 -1.30484,-0.24946 -1.79608,-0.74837c-0.49124,-0.49891 -0.73685,-1.09377 -0.73685,-1.78457c0,-0.70615 0.24562,-1.30484 0.73685,-1.79608c0.49124,-0.49124 1.08993,-0.73685 1.79608,-0.73685h9.85542c0.6908,0 1.28566,0.24562 1.78457,0.73685c0.49891,0.49124 0.74837,1.08993 0.74837,1.79608c0,0.6908 -0.24946,1.28566 -0.74837,1.78457c-0.49891,0.49891 -1.09377,0.74837 -1.78457,0.74837zM321.43328,355v-16.71736c0,-0.6908 0.24562,-1.28566 0.73685,-1.78457c0.49124,-0.49891 1.08993,-0.74837 1.79608,-0.74837h7.73696c0.6908,0 1.28566,0.24946 1.78457,0.74837c0.49891,0.49891 0.74837,1.09377 0.74837,1.78457c0,0.70615 -0.24946,1.30484 -0.74837,1.79608c-0.49891,0.49124 -1.09377,0.73685 -1.78457,0.73685h-5.20403v9.09554h7.32248c0.6908,0 1.28566,0.24562 1.78457,0.73685c0.49891,0.49124 0.74837,1.08993 0.74837,1.79608c0,0.6908 -0.24946,1.28566 -0.74837,1.78457c-0.49891,0.49891 -1.09377,0.74837 -1.78457,0.74837z" data-paper-data="{&quot;glyphName&quot;:&quot;E&quot;,&quot;glyphIndex&quot;:11,&quot;word&quot;:2,&quot;line&quot;:2}" style="fill: rgb(244, 158, 10);"/><path d="M343.51586,334.94377c-0.6908,0 -1.28566,-0.24946 -1.78457,-0.74837c-0.49891,-0.49891 -0.74837,-1.09377 -0.74837,-1.78457c0,-0.70615 0.24946,-1.30484 0.74837,-1.79608c0.49891,-0.49124 1.09377,-0.73685 1.78457,-0.73685c0.70615,0 1.30868,0.24562 1.80759,0.73685c0.49891,0.49124 0.74837,1.08993 0.74837,1.79608c0,0.6908 -0.24946,1.28566 -0.74837,1.78457c-0.49891,0.49891 -1.10144,0.74837 -1.80759,0.74837zM358.1378,355h-5.25008l-3.03952,-11.58242h-3.77637v9.04948c0,0.70615 -0.24946,1.30484 -0.74837,1.79608c-0.49891,0.49124 -1.10144,0.73685 -1.80759,0.73685c-0.6908,0 -1.28566,-0.24562 -1.78457,-0.73685c-0.49891,-0.49124 -0.74837,-1.08993 -0.74837,-1.79608v-14.11535h8.58895c0.96712,0 1.79224,-0.3454 2.47537,-1.0362c0.68312,-0.6908 1.02469,-1.51976 1.02469,-2.48688v-4.65139c0,-0.96712 -0.34156,-1.79608 -1.02469,-2.48688c-0.68312,-0.6908 -1.50825,-1.0362 -2.47537,-1.0362h-6.05601c-0.6908,0 -1.28566,-0.24562 -1.78457,-0.73685c-0.49891,-0.49124 -0.74837,-1.08993 -0.74837,-1.79608c0,-0.6908 0.24946,-1.28566 0.74837,-1.78457c0.49891,-0.49891 1.09377,-0.74837 1.78457,-0.74837h6.05601c1.56581,0 3.00114,0.38762 4.30599,1.16285c1.30484,0.77523 2.34488,1.81143 3.12011,3.1086c0.77523,1.29717 1.16285,2.73634 1.16285,4.3175v4.65139c0,1.3816 -0.31086,2.67493 -0.93258,3.87999c-0.62172,1.20506 -1.48522,2.2144 -2.5905,3.02801z" data-paper-data="{&quot;glyphName&quot;:&quot;R&quot;,&quot;glyphIndex&quot;:12,&quot;lastGlyphOfWord&quot;:true,&quot;word&quot;:2,&quot;line&quot;:2,&quot;lastGlyphOfSecondLine&quot;:true}" style="fill: rgb(244, 158, 10);" id="object-0"/></g><g data-paper-data="{&quot;isIcon&quot;:&quot;true&quot;,&quot;iconType&quot;:&quot;icon&quot;,&quot;rawIconId&quot;:&quot;2510104&quot;,&quot;source&quot;:&quot;noun&quot;,&quot;selectedEffects&quot;:{&quot;container&quot;:&quot;enclosed_circle_outline3&quot;,&quot;transformation&quot;:&quot;&quot;,&quot;pattern&quot;:&quot;&quot;},&quot;isDetailed&quot;:true,&quot;fillRule&quot;:&quot;evenodd&quot;,&quot;blockLetter&quot;:&quot;O&quot;,&quot;blockLetterId&quot;:0,&quot;relativeBoundsIconToContainer&quot;:{&quot;top&quot;:0,&quot;left&quot;:-0.03541135502906634},&quot;widthRatioIconToContainer&quot;:0.9237751894667119,&quot;heightRatioIconToContainer&quot;:1,&quot;bounds&quot;:{&quot;x&quot;:219.84992541780076,&quot;y&quot;:115,&quot;width&quot;:110.30014916439848,&quot;height&quot;:117.86723720107693},&quot;iconStyle&quot;:&quot;standalone&quot;,&quot;suitableAsStandaloneIcon&quot;:true}" fill-rule="evenodd"><path d="M271.09412,115c13.81594,0 26.76838,6.04447 35.83509,15.11119c9.06671,9.06671 15.11119,22.01915 15.11119,35.83509c0,9.49846 -2.59049,17.70167 -6.90797,25.47314l6.47622,15.97468l-65.6257,-23.3144l41.01607,6.90797l-12.52069,-25.47314l20.72391,1.29524l7.77146,18.99692c3.02224,-6.04447 4.31748,-12.52069 4.31748,-19.86041c0,-12.52069 -5.18098,-24.17789 -13.38419,-32.81286c-8.63496,-8.20321 -20.29216,-13.38419 -32.81286,-13.38419c-12.95244,0 -24.60964,5.18098 -32.81286,13.38419c-8.63496,8.63496 -13.81594,20.29216 -13.81594,32.81286c0,12.95244 5.18098,24.60964 13.81594,33.24461c8.20321,8.20321 19.86041,13.38419 32.81286,13.38419c6.90797,0 13.38419,-1.72699 19.42866,-4.31748l-35.83509,-19.86041l66.05745,22.88265l-38.42558,21.58741l-16.83818,-12.08895l8.20321,-3.88573h-2.59049c-14.24768,0 -26.76838,-5.61273 -36.26684,-14.67943c-9.06671,-9.06671 -14.67943,-22.01915 -14.67943,-36.26684c0,-13.81594 5.61273,-26.76838 14.67943,-35.83509c9.49846,-9.06671 22.01915,-15.11119 36.26684,-15.11119zM263.32265,122.33972c2.59049,-0.43175 5.18098,-0.8635 7.77146,-0.8635c12.08895,0 23.3144,5.18098 31.51761,12.95244c7.77146,8.20321 12.95244,19.42866 12.95244,31.51761c0,5.61273 -0.8635,10.7937 -2.59049,15.54293l-6.47622,-16.40643h-4.74923c0.43175,-1.72699 0.43175,-3.88573 0.43175,-5.61273c0,-10.36196 -4.31748,-19.42866 -10.7937,-26.33663c-6.90797,-6.90797 -16.40643,-10.7937 -26.76838,-10.7937zM264.6179,197.03213h2.15874l19.86041,10.7937c-4.74923,1.72699 -9.93021,3.02224 -15.54293,3.02224c-12.52069,0 -23.74615,-5.18098 -31.51761,-12.95244c-8.20321,-8.20321 -13.38419,-19.42866 -13.38419,-31.94936c0,-3.45399 0.43175,-6.90797 1.29524,-10.36196v3.88573c0,10.36196 4.31748,19.86041 10.7937,26.33663c6.90797,6.90797 16.40643,11.22545 26.33663,11.22545zM289.65928,192.71465l26.76838,9.49846l-12.95244,-32.81286l-13.81594,-0.8635l12.95244,26.33663zM286.2053,202.64486l11.6572,6.04447l-26.33663,12.52069l11.22545,8.20321l30.65411,-17.26992zM325.77344,152.22217c2.91776,6.89853 4.37663,14.12347 4.37663,21.67483c0,7.55153 -1.45888,14.77654 -4.37663,21.67503c-0.83681,1.97857 -1.7759,3.88987 -2.81728,5.73391l-0.56124,-1.38436l-0.30595,-0.75485l-0.22371,-1.2292l-0.02072,-4.07129c2.68146,-6.35383 4.0222,-13.01024 4.0222,-19.96924c0,-1.9963 -0.11035,-3.96771 -0.33104,-5.91424l0.02508,-0.73648l0.002,-0.08125l0.01354,-1.17867v-0.07724l-0.01053,-0.9958l-0.002,-0.08085l-0.03912,-1.17797l-0.00401,-0.08727l-0.06821,-1.17667l-0.00652,-0.08667l-0.09731,-1.17461l-0.00803,-0.08612l-0.12589,-1.17185l-0.01053,-0.08542l-0.15398,-1.16849l-0.01254,-0.08461l-0.18257,-1.16438l-0.01404,-0.08386l-0.21066,-1.15966l-0.01605,-0.08296l-0.23825,-1.1543l-0.01806,-0.08205l-0.26583,-1.14833l-0.01956,-0.08105l-0.29291,-1.14176l-0.02157,-0.08015l-0.319,-1.13454l-0.02357,-0.07909l-0.34557,-1.12681l-0.02508,-0.07815l-0.37166,-1.11848l-0.02658,-0.07704l-0.39724,-1.10961l-0.02859,-0.07604l-0.42282,-1.10023l-0.02959,-0.07503l-0.4479,-1.09025l-0.0311,-0.07398l-0.47247,-1.07982l-0.0331,-0.07298l-0.49655,-1.06883l-0.03461,-0.07192l-0.52062,-1.05739l-0.03611,-0.07092l-0.54419,-1.04541l-0.03762,-0.06997l-0.15529,-0.28251c2.74417,3.63155 5.01569,7.57385 6.81454,11.82687zM252.79195,225.20386c-6.66212,-2.81811 -12.56175,-6.79567 -17.69889,-11.93268c-5.13714,-5.13734 -9.11463,-11.03705 -11.93247,-17.69914c-1.47778,-3.49385 -2.58134,-7.07146 -3.31067,-10.73282l0.30452,0.841l0.02839,0.07574l0.42643,1.09892l0.03021,0.07523l0.45152,1.08889l0.03204,0.07473l0.47646,1.07836l0.03386,0.07423l0.50122,1.06632l0.03569,0.07373l0.5258,1.05529l0.03753,0.07323l0.55019,1.04225l0.03937,0.07222l0.57436,1.0292l0.04122,0.07222l0.59831,1.01516l0.04307,0.07122l0.62202,1.00112l0.04499,0.07072l0.64551,0.98607l0.04679,0.06972l0.66873,0.97052l0.0487,0.06872l0.6917,0.95447l0.05056,0.06821l0.71443,0.93742l0.05246,0.06721l0.73675,0.91987l0.05437,0.06621l0.75886,0.90181l0.05622,0.0652l0.78063,0.88325l0.05818,0.0642l0.802,0.86369l0.06009,0.06319l0.82307,0.84363l0.09008,0.08878l0.05206,0.04966l0.91651,0.85466l0.93466,0.8351l0.95252,0.81604l0.61147,0.50137c0.72674,0.82402 1.48286,1.62875 2.26835,2.41422c4.74334,4.74344 10.18958,8.41556 16.3387,11.01633c3.21354,1.35929 6.50449,2.37544 9.87282,3.04848l0.60457,0.43388l0.95744,0.68764l0.95748,0.68714l0.95744,0.68764l0.95748,0.68714l0.95744,0.68764l0.95758,0.68764l0.89543,0.64277c-6.51024,-0.32616 -12.77233,-1.76105 -18.78627,-4.30468z" data-paper-data="{&quot;isPathIcon&quot;:true}" style="fill: rgb(244, 158, 10);"/></g></g></g></svg>