<?xml version="1.0" encoding="utf-8"?>
<svg xmlns="http://www.w3.org/2000/svg" viewBox="219.8499 115 110.3001 117.8672" width="110.3px" height="117.867px" preserveAspectRatio="none"><path d="M271.09412,115c13.81594,0 26.76838,6.04447 35.83509,15.11119c9.06671,9.06671 15.11119,22.01915 15.11119,35.83509c0,9.49846 -2.59049,17.70167 -6.90797,25.47314l6.47622,15.97468l-65.6257,-23.3144l41.01607,6.90797l-12.52069,-25.47314l20.72391,1.29524l7.77146,18.99692c3.02224,-6.04447 4.31748,-12.52069 4.31748,-19.86041c0,-12.52069 -5.18098,-24.17789 -13.38419,-32.81286c-8.63496,-8.20321 -20.29216,-13.38419 -32.81286,-13.38419c-12.95244,0 -24.60964,5.18098 -32.81286,13.38419c-8.63496,8.63496 -13.81594,20.29216 -13.81594,32.81286c0,12.95244 5.18098,24.60964 13.81594,33.24461c8.20321,8.20321 19.86041,13.38419 32.81286,13.38419c6.90797,0 13.38419,-1.72699 19.42866,-4.31748l-35.83509,-19.86041l66.05745,22.88265l-38.42558,21.58741l-16.83818,-12.08895l8.20321,-3.88573h-2.59049c-14.24768,0 -26.76838,-5.61273 -36.26684,-14.67943c-9.06671,-9.06671 -14.67943,-22.01915 -14.67943,-36.26684c0,-13.81594 5.61273,-26.76838 14.67943,-35.83509c9.49846,-9.06671 22.01915,-15.11119 36.26684,-15.11119zM263.32265,122.33972c2.59049,-0.43175 5.18098,-0.8635 7.77146,-0.8635c12.08895,0 23.3144,5.18098 31.51761,12.95244c7.77146,8.20321 12.95244,19.42866 12.95244,31.51761c0,5.61273 -0.8635,10.7937 -2.59049,15.54293l-6.47622,-16.40643h-4.74923c0.43175,-1.72699 0.43175,-3.88573 0.43175,-5.61273c0,-10.36196 -4.31748,-19.42866 -10.7937,-26.33663c-6.90797,-6.90797 -16.40643,-10.7937 -26.76838,-10.7937zM264.6179,197.03213h2.15874l19.86041,10.7937c-4.74923,1.72699 -9.93021,3.02224 -15.54293,3.02224c-12.52069,0 -23.74615,-5.18098 -31.51761,-12.95244c-8.20321,-8.20321 -13.38419,-19.42866 -13.38419,-31.94936c0,-3.45399 0.43175,-6.90797 1.29524,-10.36196v3.88573c0,10.36196 4.31748,19.86041 10.7937,26.33663c6.90797,6.90797 16.40643,11.22545 26.33663,11.22545zM289.65928,192.71465l26.76838,9.49846l-12.95244,-32.81286l-13.81594,-0.8635l12.95244,26.33663zM286.2053,202.64486l11.6572,6.04447l-26.33663,12.52069l11.22545,8.20321l30.65411,-17.26992zM325.77344,152.22217c2.91776,6.89853 4.37663,14.12347 4.37663,21.67483c0,7.55153 -1.45888,14.77654 -4.37663,21.67503c-0.83681,1.97857 -1.7759,3.88987 -2.81728,5.73391l-0.56124,-1.38436l-0.30595,-0.75485l-0.22371,-1.2292l-0.02072,-4.07129c2.68146,-6.35383 4.0222,-13.01024 4.0222,-19.96924c0,-1.9963 -0.11035,-3.96771 -0.33104,-5.91424l0.02508,-0.73648l0.002,-0.08125l0.01354,-1.17867v-0.07724l-0.01053,-0.9958l-0.002,-0.08085l-0.03912,-1.17797l-0.00401,-0.08727l-0.06821,-1.17667l-0.00652,-0.08667l-0.09731,-1.17461l-0.00803,-0.08612l-0.12589,-1.17185l-0.01053,-0.08542l-0.15398,-1.16849l-0.01254,-0.08461l-0.18257,-1.16438l-0.01404,-0.08386l-0.21066,-1.15966l-0.01605,-0.08296l-0.23825,-1.1543l-0.01806,-0.08205l-0.26583,-1.14833l-0.01956,-0.08105l-0.29291,-1.14176l-0.02157,-0.08015l-0.319,-1.13454l-0.02357,-0.07909l-0.34557,-1.12681l-0.02508,-0.07815l-0.37166,-1.11848l-0.02658,-0.07704l-0.39724,-1.10961l-0.02859,-0.07604l-0.42282,-1.10023l-0.02959,-0.07503l-0.4479,-1.09025l-0.0311,-0.07398l-0.47247,-1.07982l-0.0331,-0.07298l-0.49655,-1.06883l-0.03461,-0.07192l-0.52062,-1.05739l-0.03611,-0.07092l-0.54419,-1.04541l-0.03762,-0.06997l-0.15529,-0.28251c2.74417,3.63155 5.01569,7.57385 6.81454,11.82687zM252.79195,225.20386c-6.66212,-2.81811 -12.56175,-6.79567 -17.69889,-11.93268c-5.13714,-5.13734 -9.11463,-11.03705 -11.93247,-17.69914c-1.47778,-3.49385 -2.58134,-7.07146 -3.31067,-10.73282l0.30452,0.841l0.02839,0.07574l0.42643,1.09892l0.03021,0.07523l0.45152,1.08889l0.03204,0.07473l0.47646,1.07836l0.03386,0.07423l0.50122,1.06632l0.03569,0.07373l0.5258,1.05529l0.03753,0.07323l0.55019,1.04225l0.03937,0.07222l0.57436,1.0292l0.04122,0.07222l0.59831,1.01516l0.04307,0.07122l0.62202,1.00112l0.04499,0.07072l0.64551,0.98607l0.04679,0.06972l0.66873,0.97052l0.0487,0.06872l0.6917,0.95447l0.05056,0.06821l0.71443,0.93742l0.05246,0.06721l0.73675,0.91987l0.05437,0.06621l0.75886,0.90181l0.05622,0.0652l0.78063,0.88325l0.05818,0.0642l0.802,0.86369l0.06009,0.06319l0.82307,0.84363l0.09008,0.08878l0.05206,0.04966l0.91651,0.85466l0.93466,0.8351l0.95252,0.81604l0.61147,0.50137c0.72674,0.82402 1.48286,1.62875 2.26835,2.41422c4.74334,4.74344 10.18958,8.41556 16.3387,11.01633c3.21354,1.35929 6.50449,2.37544 9.87282,3.04848l0.60457,0.43388l0.95744,0.68764l0.95748,0.68714l0.95744,0.68764l0.95748,0.68714l0.95744,0.68764l0.95758,0.68764l0.89543,0.64277c-6.51024,-0.32616 -12.77233,-1.76105 -18.78627,-4.30468z" data-paper-data="{&quot;isPathIcon&quot;:true}" style="fill: #f49e0a;" id="object-0"/></svg>